<?xml version="1.0" encoding="utf-8"?>
<!-- Svg Vector Icons : http://www.onlinewebfonts.com/icon -->
<!DOCTYPE svg PUBLIC "-//W3C//DTD SVG 1.1//EN" "http://www.w3.org/Graphics/SVG/1.1/DTD/svg11.dtd">
<svg version="1.1" xmlns="http://www.w3.org/2000/svg" xmlns:xlink="http://www.w3.org/1999/xlink" x="0px" y="0px" viewBox="0 0 1000 1000" enable-background="new 0 0 1000 1000" xml:space="preserve">
<metadata> Svg Vector Icons : http://www.onlinewebfonts.com/icon </metadata>
<g><g transform="translate(0.000000,511.000000) scale(0.100000,-0.100000)"><path fill="#61dafb" d="M755.9,2581c-62.7-20-145.5-51.4-182.5-71.3c-128.3-71.3-322.3-270.9-396.4-416.4c-74.2-139.7-77-154-77-655.9c0-479.1,5.7-524.7,68.4-661.7c79.9-176.8,293.8-387.9,482-473.4c114.1-54.2,196.8-62.7,576.1-71.3c382.2-8.5,450.6-17.1,499.1-62.7c31.4-28.5,134-88.4,228.2-134l171.1-79.9l721.5-8.5l718.7-8.6v-199.6v-196.8h-590.4h-593.2l119.8-57c174-77,359.3-282.3,453.5-499.1l79.8-185.4H5262h2224.5l54.2,148.3c39.9,111.2,105.5,202.5,256.7,353.7c265.2,265.2,436.3,336.5,801.4,339.4c233.9,0,273.8-8.5,447.8-94.1c122.6-59.9,236.7-145.4,319.4-236.7c125.5-139.8,273.8-407.8,273.8-493.4c0-94.1,151.2-25.7,213.9,96.9c59.9,119.8,62.8,2147.5,2.8,2350c-45.6,148.3-373.6,684.5-573.2,938.3c-97,122.7-176.8,188.2-288,239.6c-148.3,65.6-168.3,68.5-721.6,59.9c-519-8.5-573.2-14.3-630.3-65.6c-139.8-125.5-142.6-151.1-142.6-1568.6V-459.2h-228.2h-228.2V-117v342.2h-199.6h-199.6V-117v-342.2h-713h-713v182.5V-97l168.3,17.1c199.6,17.1,382.1,94.1,521.9,216.8c65.6,57,131.2,88.4,188.2,88.4h82.7l14.3,336.5c20,499.1-62.7,758.6-310.9,975.4c-179.7,159.7-330.8,208.2-656,222.4L4934,1771v139.8c0,102.7-11.4,139.7-39.9,139.7c-22.8,0-57,48.5-74.2,108.4c-54.2,162.6-159.7,282.4-322.3,370.8l-148.3,77l-1739.7,5.7C1263.6,2618,844.4,2609.5,755.9,2581z M3108.8,2053.4V1771l-490.5-11.4c-470.6-8.5-499.1-11.4-638.8-85.6c-193.9-102.7-393.6-328-456.3-516.2c-28.5-85.6-51.3-231-48.5-339.4V624.5H1198c-302.3,0-422.1,28.5-567.5,136.9C467.9,881.2,428,1012.4,428,1448.7c0,439.2,28.5,564.7,162.6,701.6c176.8,182.5,165.4,179.7,1400.3,182.5l1118,2.8V2053.4z M4343.7,2275.8c68.5-31.4,162.6-154,162.6-211.1c0-8.5-31.4-14.3-71.3-14.3c-65.6,0-71.3-8.5-71.3-142.6v-142.6h-342.2h-342.2v288.1v290.9l293.7-14.3C4132.6,2321.4,4300.9,2298.6,4343.7,2275.8z M9234.7,1534.3l319.4-516.2V764.3V510.4h-827.1h-827.1v770v770h507.6l504.8-2.8L9234.7,1534.3z M5547.2,1311.9c196.8-91.3,328-290.9,328-499.1c0-205.3,182.5-188.2-2039.1-188.2H1834L1816.9,730c-39.9,245.3,134,539,356.5,604.6c54.2,14.3,770,25.6,1676.9,28.5C5330.5,1366,5441.7,1360.3,5547.2,1311.9z"/><path fill="#000000" d="M1665.7-630.3c-51.3-17.1-151.1-71.3-228.2-119.8c-581.8-393.6-527.6-1246.3,97-1554.3c136.9-68.4,199.6-79.8,390.7-79.8c191.1,0,253.8,11.4,390.7,79.8c176.8,85.6,328,236.7,427.8,425c94.1,179.7,94.1,578.9-2.9,764.3c-162.6,313.7-430.6,487.7-772.9,502C1851.1-607.5,1714.2-616.1,1665.7-630.3z M2230.4-1026.7c176.8-122.7,236.7-242.4,236.7-473.4c0-168.3-11.4-222.5-68.4-305.2c-122.6-176.8-242.4-236.7-473.4-236.7c-168.3,0-222.4,11.4-305.2,68.5c-196.8,136.9-285.2,362.2-239.6,610.3c22.8,116.9,179.7,308,308,373.6C1825.4-921.2,2102.1-938.3,2230.4-1026.7z"/><path fill="#ffffff" d="M8307.9-641.7c-245.3-79.9-476.3-310.9-564.7-559c-57.1-159.7-54.2-439.2,2.8-610.3c62.8-185.4,285.2-422.1,473.4-502c456.3-196.8,941.1-25.7,1163.6,410.7c88.4,174,99.8,222.5,99.8,413.5c0,179.7-14.3,248.1-79.8,379.3c-88.4,176.8-239.6,330.8-424.9,425C8824.1-604.7,8484.7-584.7,8307.9-641.7z M8807-986.8c302.3-128.3,430.6-467.7,285.2-755.8c-102.7-199.6-245.3-293.7-462-308c-299.5-20-516.2,136.9-587.5,425C7934.3-1192.2,8387.7-812.8,8807-986.8z"/></g></g>
</svg>